<svg width="495" height="366" viewBox="0 0 495 366" fill="none" xmlns="http://www.w3.org/2000/svg">
<path d="M24.5711 28.8C24.1551 28.8 23.8351 28.48 23.8351 28.064V9.6H27.0991V28.064C27.0991 28.48 27.4191 28.8 27.8351 28.8H39.4191C39.8351 28.8 40.1551 28.48 40.1551 28.064V9.6H43.4191V28.064C43.4191 28.48 43.0991 28.8 42.6831 28.8H40.8911C40.4751 28.8 40.1551 29.12 40.1551 29.536V31.264C40.1551 31.68 39.8351 32 39.4191 32H27.8351C27.4191 32 27.0991 31.68 27.0991 31.264V29.536C27.0991 29.12 26.7791 28.8 26.3631 28.8H24.5711ZM49.9429 16.736C49.9429 16.32 50.2629 16 50.6789 16H62.9989V19.2H50.6789C50.2629 19.2 49.9429 19.52 49.9429 19.936V21.664C49.9429 22.08 50.2629 22.4 50.6789 22.4H58.9989C59.4149 22.4 59.7349 22.72 59.7349 23.136V24.864C59.7349 25.28 60.0549 25.6 60.4709 25.6H62.2629C62.6789 25.6 62.9989 25.92 62.9989 26.336V28.064C62.9989 28.48 62.6789 28.8 62.2629 28.8H60.4709C60.0549 28.8 59.7349 29.12 59.7349 29.536V31.264C59.7349 31.68 59.4149 32 58.9989 32H46.6789V28.8H58.9989C59.4149 28.8 59.7349 28.48 59.7349 28.064V26.336C59.7349 25.92 59.4149 25.6 58.9989 25.6H50.6789C50.2629 25.6 49.9429 25.28 49.9429 24.864V23.136C49.9429 22.72 49.6229 22.4 49.2069 22.4H47.4149C46.9989 22.4 46.6789 22.08 46.6789 21.664V19.936C46.6789 19.52 46.9989 19.2 47.4149 19.2H49.2069C49.6229 19.2 49.9429 18.88 49.9429 18.464V16.736ZM81.8566 19.2C82.2726 19.2 82.5926 19.52 82.5926 19.936V21.664C82.5926 22.08 82.2726 22.4 81.8566 22.4H80.0646C79.6486 22.4 79.3286 22.72 79.3286 23.136V24.864C79.3286 25.28 79.0086 25.6 78.5926 25.6H71.1686V22.4H78.5926C79.0086 22.4 79.3286 22.08 79.3286 21.664V19.936C79.3286 19.52 79.0086 19.2 78.5926 19.2H70.2726C69.8566 19.2 69.5366 19.52 69.5366 19.936V28.064C69.5366 28.48 69.8566 28.8 70.2726 28.8H82.5926V32H70.2726C69.8566 32 69.5366 31.68 69.5366 31.264V29.536C69.5366 29.12 69.2166 28.8 68.8006 28.8H67.0086C66.5926 28.8 66.2726 28.48 66.2726 28.064V19.936C66.2726 19.52 66.5926 19.2 67.0086 19.2H68.8006C69.2166 19.2 69.5366 18.88 69.5366 18.464V16.736C69.5366 16.32 69.8566 16 70.2726 16H78.5926C79.0086 16 79.3286 16.32 79.3286 16.736V18.464C79.3286 18.88 79.6486 19.2 80.0646 19.2H81.8566ZM100.568 23.136C100.568 22.72 100.888 22.4 101.304 22.4H108.728V25.6H101.304C100.888 25.6 100.568 25.92 100.568 26.336V28.064C100.568 28.48 100.888 28.8 101.304 28.8H109.624C110.04 28.8 110.36 28.48 110.36 28.064V19.936C110.36 19.52 110.04 19.2 109.624 19.2H97.3039V16H109.624C110.04 16 110.36 16.32 110.36 16.736V18.464C110.36 18.88 110.68 19.2 111.096 19.2H112.888C113.304 19.2 113.624 19.52 113.624 19.936V28.064C113.624 28.48 113.304 28.8 112.888 28.8H111.096C110.68 28.8 110.36 29.12 110.36 29.536V31.264C110.36 31.68 110.04 32 109.624 32H101.304C100.888 32 100.568 31.68 100.568 31.264V29.536C100.568 29.12 100.248 28.8 99.8319 28.8H98.0399C97.6239 28.8 97.3039 28.48 97.3039 28.064V26.336C97.3039 25.92 97.6239 25.6 98.0399 25.6H99.8319C100.248 25.6 100.568 25.28 100.568 24.864V23.136ZM120.162 16.736C120.162 16.32 120.482 16 120.898 16H129.218C129.634 16 129.954 16.32 129.954 16.736V18.464C129.954 18.88 130.274 19.2 130.69 19.2H132.482C132.898 19.2 133.218 19.52 133.218 19.936V22.4H129.954V19.936C129.954 19.52 129.634 19.2 129.218 19.2H120.898C120.482 19.2 120.162 19.52 120.162 19.936V32H116.898V19.936C116.898 19.52 117.218 19.2 117.634 19.2H119.426C119.842 19.2 120.162 18.88 120.162 18.464V16.736ZM139.755 16.736C139.755 16.32 140.075 16 140.491 16H148.811C149.227 16 149.547 16.32 149.547 16.736V18.464C149.547 18.88 149.867 19.2 150.283 19.2H152.075C152.491 19.2 152.811 19.52 152.811 19.936V22.4H149.547V19.936C149.547 19.52 149.227 19.2 148.811 19.2H140.491C140.075 19.2 139.755 19.52 139.755 19.936V32H136.491V19.936C136.491 19.52 136.811 19.2 137.227 19.2H139.019C139.435 19.2 139.755 18.88 139.755 18.464V16.736ZM160.085 32C159.669 32 159.349 31.68 159.349 31.264V29.536C159.349 29.12 159.029 28.8 158.613 28.8H156.821C156.405 28.8 156.085 28.48 156.085 28.064V19.936C156.085 19.52 156.405 19.2 156.821 19.2H158.613C159.029 19.2 159.349 18.88 159.349 18.464V16.736C159.349 16.32 159.669 16 160.085 16H168.405C168.821 16 169.141 16.32 169.141 16.736V18.464C169.141 18.88 169.461 19.2 169.877 19.2H171.669C172.085 19.2 172.405 19.52 172.405 19.936V28.064C172.405 28.48 172.085 28.8 171.669 28.8H169.877C169.461 28.8 169.141 29.12 169.141 29.536V31.264C169.141 31.68 168.821 32 168.405 32H160.085ZM159.349 28.064C159.349 28.48 159.669 28.8 160.085 28.8H168.405C168.821 28.8 169.141 28.48 169.141 28.064V19.936C169.141 19.52 168.821 19.2 168.405 19.2H160.085C159.669 19.2 159.349 19.52 159.349 19.936V28.064ZM191.999 31.264C191.999 31.68 191.679 32 191.263 32H187.839C187.423 32 187.103 31.68 187.103 31.264V29.536C187.103 29.12 186.783 28.8 186.367 28.8H184.575C184.159 28.8 183.839 29.12 183.839 29.536V31.264C183.839 31.68 183.519 32 183.103 32H179.679C179.263 32 178.943 31.68 178.943 31.264V29.536C178.943 29.12 178.623 28.8 178.207 28.8H176.415C175.999 28.8 175.679 28.48 175.679 28.064V16H178.943V28.064C178.943 28.48 179.263 28.8 179.679 28.8H183.103C183.519 28.8 183.839 28.48 183.839 28.064V16H187.103V28.064C187.103 28.48 187.423 28.8 187.839 28.8H191.263C191.679 28.8 191.999 28.48 191.999 28.064V16H195.263V28.064C195.263 28.48 194.943 28.8 194.527 28.8H192.735C192.319 28.8 191.999 29.12 191.999 29.536V31.264ZM209.96 26.336C209.96 25.92 210.28 25.6 210.696 25.6H212.488C212.904 25.6 213.224 25.28 213.224 24.864V23.136C213.224 22.72 212.904 22.4 212.488 22.4H210.696C210.28 22.4 209.96 22.08 209.96 21.664V9.6H213.224V21.664C213.224 22.08 213.544 22.4 213.96 22.4H219.016C219.432 22.4 219.752 22.08 219.752 21.664V19.936C219.752 19.52 220.072 19.2 220.488 19.2H222.28C222.696 19.2 223.016 18.88 223.016 18.464V16.736C223.016 16.32 223.336 16 223.752 16H225.544C225.96 16 226.28 16.32 226.28 16.736V18.464C226.28 18.88 225.96 19.2 225.544 19.2H223.752C223.336 19.2 223.016 19.52 223.016 19.936V21.664C223.016 22.08 222.696 22.4 222.28 22.4H220.488C220.072 22.4 219.752 22.72 219.752 23.136V24.864C219.752 25.28 220.072 25.6 220.488 25.6H222.28C222.696 25.6 223.016 25.92 223.016 26.336V28.064C223.016 28.48 223.336 28.8 223.752 28.8H225.544C225.96 28.8 226.28 29.12 226.28 29.536V31.264C226.28 31.68 225.96 32 225.544 32H223.752C223.336 32 223.016 31.68 223.016 31.264V29.536C223.016 29.12 222.696 28.8 222.28 28.8H220.488C220.072 28.8 219.752 28.48 219.752 28.064V26.336C219.752 25.92 219.432 25.6 219.016 25.6H213.96C213.544 25.6 213.224 25.92 213.224 26.336V32H209.96V26.336ZM245.138 19.2C245.554 19.2 245.874 19.52 245.874 19.936V21.664C245.874 22.08 245.554 22.4 245.138 22.4H243.346C242.93 22.4 242.61 22.72 242.61 23.136V24.864C242.61 25.28 242.29 25.6 241.874 25.6H234.45V22.4H241.874C242.29 22.4 242.61 22.08 242.61 21.664V19.936C242.61 19.52 242.29 19.2 241.874 19.2H233.554C233.138 19.2 232.818 19.52 232.818 19.936V28.064C232.818 28.48 233.138 28.8 233.554 28.8H245.874V32H233.554C233.138 32 232.818 31.68 232.818 31.264V29.536C232.818 29.12 232.498 28.8 232.082 28.8H230.29C229.874 28.8 229.554 28.48 229.554 28.064V19.936C229.554 19.52 229.874 19.2 230.29 19.2H232.082C232.498 19.2 232.818 18.88 232.818 18.464V16.736C232.818 16.32 233.138 16 233.554 16H241.874C242.29 16 242.61 16.32 242.61 16.736V18.464C242.61 18.88 242.93 19.2 243.346 19.2H245.138ZM249.148 38.4V35.2H261.468C261.884 35.2 262.204 34.88 262.204 34.464V16H265.468V34.464C265.468 34.88 265.148 35.2 264.732 35.2H262.94C262.524 35.2 262.204 35.52 262.204 35.936V37.664C262.204 38.08 261.884 38.4 261.468 38.4H249.148ZM249.148 28.064V16H252.412V28.064C252.412 28.48 252.732 28.8 253.148 28.8H260.572V32H253.148C252.732 32 252.412 31.68 252.412 31.264V29.536C252.412 29.12 252.092 28.8 251.676 28.8H249.884C249.468 28.8 249.148 28.48 249.148 28.064ZM272.005 16.736C272.005 16.32 272.325 16 272.741 16H285.061V19.2H272.741C272.325 19.2 272.005 19.52 272.005 19.936V21.664C272.005 22.08 272.325 22.4 272.741 22.4H281.061C281.477 22.4 281.797 22.72 281.797 23.136V24.864C281.797 25.28 282.117 25.6 282.533 25.6H284.325C284.741 25.6 285.061 25.92 285.061 26.336V28.064C285.061 28.48 284.741 28.8 284.325 28.8H282.533C282.117 28.8 281.797 29.12 281.797 29.536V31.264C281.797 31.68 281.477 32 281.061 32H268.741V28.8H281.061C281.477 28.8 281.797 28.48 281.797 28.064V26.336C281.797 25.92 281.477 25.6 281.061 25.6H272.741C272.325 25.6 272.005 25.28 272.005 24.864V23.136C272.005 22.72 271.685 22.4 271.269 22.4H269.477C269.061 22.4 268.741 22.08 268.741 21.664V19.936C268.741 19.52 269.061 19.2 269.477 19.2H271.269C271.685 19.2 272.005 18.88 272.005 18.464V16.736ZM303.773 32C303.357 32 303.037 31.68 303.037 31.264V29.536C303.037 29.12 302.717 28.8 302.301 28.8H300.509C300.093 28.8 299.773 28.48 299.773 28.064V19.936C299.773 19.52 300.093 19.2 300.509 19.2H302.301C302.717 19.2 303.037 18.88 303.037 18.464V16.736C303.037 16.32 302.717 16 302.301 16H300.509C300.093 16 299.773 15.68 299.773 15.264V9.6H303.037V15.264C303.037 15.68 303.357 16 303.773 16H311.197V19.2H303.773C303.357 19.2 303.037 19.52 303.037 19.936V28.064C303.037 28.48 303.357 28.8 303.773 28.8H314.461V32H303.773ZM321.71 32C321.294 32 320.974 31.68 320.974 31.264V29.536C320.974 29.12 320.654 28.8 320.238 28.8H318.446C318.03 28.8 317.71 28.48 317.71 28.064V19.936C317.71 19.52 318.03 19.2 318.446 19.2H320.238C320.654 19.2 320.974 18.88 320.974 18.464V16.736C320.974 16.32 321.294 16 321.71 16H330.03C330.446 16 330.766 16.32 330.766 16.736V18.464C330.766 18.88 331.086 19.2 331.502 19.2H333.294C333.71 19.2 334.03 19.52 334.03 19.936V28.064C334.03 28.48 333.71 28.8 333.294 28.8H331.502C331.086 28.8 330.766 29.12 330.766 29.536V31.264C330.766 31.68 330.446 32 330.03 32H321.71ZM320.974 28.064C320.974 28.48 321.294 28.8 321.71 28.8H330.03C330.446 28.8 330.766 28.48 330.766 28.064V19.936C330.766 19.52 330.446 19.2 330.03 19.2H321.71C321.294 19.2 320.974 19.52 320.974 19.936V28.064ZM361.797 22.4V19.936C361.797 19.52 361.477 19.2 361.061 19.2H352.741C352.325 19.2 352.005 19.52 352.005 19.936V28.064C352.005 28.48 352.325 28.8 352.741 28.8H361.061C361.477 28.8 361.797 28.48 361.797 28.064V25.6H365.061V28.064C365.061 28.48 364.741 28.8 364.325 28.8H362.533C362.117 28.8 361.797 29.12 361.797 29.536V31.264C361.797 31.68 361.477 32 361.061 32H352.741C352.325 32 352.005 31.68 352.005 31.264V29.536C352.005 29.12 351.685 28.8 351.269 28.8H349.477C349.061 28.8 348.741 28.48 348.741 28.064V19.936C348.741 19.52 349.061 19.2 349.477 19.2H351.269C351.685 19.2 352.005 18.88 352.005 18.464V16.736C352.005 16.32 352.325 16 352.741 16H361.061C361.477 16 361.797 16.32 361.797 16.736V18.464C361.797 18.88 362.117 19.2 362.533 19.2H364.325C364.741 19.2 365.061 19.52 365.061 19.936V22.4H361.797ZM381.391 31.264C381.391 31.68 381.071 32 380.655 32H372.335C371.919 32 371.599 31.68 371.599 31.264V29.536C371.599 29.12 371.279 28.8 370.863 28.8H369.071C368.655 28.8 368.335 28.48 368.335 28.064V16H371.599V28.064C371.599 28.48 371.919 28.8 372.335 28.8H380.655C381.071 28.8 381.391 28.48 381.391 28.064V16H384.655V28.064C384.655 28.48 384.335 28.8 383.919 28.8H382.127C381.711 28.8 381.391 29.12 381.391 29.536V31.264ZM391.929 32C391.513 32 391.193 31.68 391.193 31.264V29.536C391.193 29.12 390.873 28.8 390.457 28.8H388.665C388.249 28.8 387.929 28.48 387.929 28.064V19.936C387.929 19.52 388.249 19.2 388.665 19.2H390.457C390.873 19.2 391.193 18.88 391.193 18.464V16.736C391.193 16.32 390.873 16 390.457 16H388.665C388.249 16 387.929 15.68 387.929 15.264V9.6H391.193V15.264C391.193 15.68 391.513 16 391.929 16H399.353V19.2H391.929C391.513 19.2 391.193 19.52 391.193 19.936V28.064C391.193 28.48 391.513 28.8 391.929 28.8H402.617V32H391.929ZM421.304 32C420.888 32 420.568 31.68 420.568 31.264V29.536C420.568 29.12 420.248 28.8 419.832 28.8H418.04C417.624 28.8 417.304 28.48 417.304 28.064V19.936C417.304 19.52 417.624 19.2 418.04 19.2H419.832C420.248 19.2 420.568 18.88 420.568 18.464V16.736C420.568 16.32 420.888 16 421.304 16H429.624C430.04 16 430.36 16.32 430.36 16.736V18.464C430.36 18.88 430.68 19.2 431.096 19.2H432.888C433.304 19.2 433.624 19.52 433.624 19.936V28.064C433.624 28.48 433.304 28.8 432.888 28.8H431.096C430.68 28.8 430.36 29.12 430.36 29.536V31.264C430.36 31.68 430.04 32 429.624 32H421.304ZM420.568 28.064C420.568 28.48 420.888 28.8 421.304 28.8H429.624C430.04 28.8 430.36 28.48 430.36 28.064V19.936C430.36 19.52 430.04 19.2 429.624 19.2H421.304C420.888 19.2 420.568 19.52 420.568 19.936V28.064ZM449.954 31.264C449.954 31.68 449.634 32 449.218 32H440.898C440.482 32 440.162 31.68 440.162 31.264V29.536C440.162 29.12 439.842 28.8 439.426 28.8H437.634C437.218 28.8 436.898 28.48 436.898 28.064V16H440.162V28.064C440.162 28.48 440.482 28.8 440.898 28.8H449.218C449.634 28.8 449.954 28.48 449.954 28.064V16H453.218V28.064C453.218 28.48 452.898 28.8 452.482 28.8H450.69C450.274 28.8 449.954 29.12 449.954 29.536V31.264ZM460.491 32C460.075 32 459.755 31.68 459.755 31.264V29.536C459.755 29.12 459.435 28.8 459.019 28.8H457.227C456.811 28.8 456.491 28.48 456.491 28.064V19.936C456.491 19.52 456.811 19.2 457.227 19.2H459.019C459.435 19.2 459.755 18.88 459.755 18.464V16.736C459.755 16.32 459.435 16 459.019 16H457.227C456.811 16 456.491 15.68 456.491 15.264V9.6H459.755V15.264C459.755 15.68 460.075 16 460.491 16H467.915V19.2H460.491C460.075 19.2 459.755 19.52 459.755 19.936V28.064C459.755 28.48 460.075 28.8 460.491 28.8H471.179V32H460.491ZM11.6008 61.936C11.6008 61.52 11.9208 61.2 12.3368 61.2H14.1288C14.5448 61.2 14.8648 60.88 14.8648 60.464V58.736C14.8648 58.32 15.1848 58 15.6008 58H23.9208C24.3368 58 24.6568 58.32 24.6568 58.736V60.464C24.6568 60.88 24.9768 61.2 25.3928 61.2H27.1848C27.6007 61.2 27.9208 61.52 27.9208 61.936V70.064C27.9208 70.48 27.6007 70.8 27.1848 70.8H25.3928C24.9768 70.8 24.6568 71.12 24.6568 71.536V73.264C24.6568 73.68 24.3368 74 23.9208 74H16.4968V70.8H23.9208C24.3368 70.8 24.6568 70.48 24.6568 70.064V61.936C24.6568 61.52 24.3368 61.2 23.9208 61.2H15.6008C15.1848 61.2 14.8648 61.52 14.8648 61.936V80.4H11.6008V61.936ZM34.4585 65.136C34.4585 64.72 34.7785 64.4 35.1945 64.4H42.6185V67.6H35.1945C34.7785 67.6 34.4585 67.92 34.4585 68.336V70.064C34.4585 70.48 34.7785 70.8 35.1945 70.8H43.5145C43.9305 70.8 44.2505 70.48 44.2505 70.064V61.936C44.2505 61.52 43.9305 61.2 43.5145 61.2H31.1945V58H43.5145C43.9305 58 44.2505 58.32 44.2505 58.736V60.464C44.2505 60.88 44.5705 61.2 44.9865 61.2H46.7785C47.1945 61.2 47.5145 61.52 47.5145 61.936V70.064C47.5145 70.48 47.1945 70.8 46.7785 70.8H44.9865C44.5705 70.8 44.2505 71.12 44.2505 71.536V73.264C44.2505 73.68 43.9305 74 43.5145 74H35.1945C34.7785 74 34.4585 73.68 34.4585 73.264V71.536C34.4585 71.12 34.1385 70.8 33.7225 70.8H31.9305C31.5145 70.8 31.1945 70.48 31.1945 70.064V68.336C31.1945 67.92 31.5145 67.6 31.9305 67.6H33.7225C34.1385 67.6 34.4585 67.28 34.4585 66.864V65.136ZM54.0523 58.736C54.0523 58.32 54.3723 58 54.7883 58H63.1083C63.5243 58 63.8443 58.32 63.8443 58.736V60.464C63.8443 60.88 64.1643 61.2 64.5803 61.2H66.3723C66.7882 61.2 67.1083 61.52 67.1083 61.936V64.4H63.8443V61.936C63.8443 61.52 63.5243 61.2 63.1083 61.2H54.7883C54.3723 61.2 54.0523 61.52 54.0523 61.936V74H50.7883V61.936C50.7883 61.52 51.1083 61.2 51.5243 61.2H53.3163C53.7323 61.2 54.0523 60.88 54.0523 60.464V58.736ZM74.382 74C73.966 74 73.646 73.68 73.646 73.264V71.536C73.646 71.12 73.326 70.8 72.91 70.8H71.118C70.702 70.8 70.382 70.48 70.382 70.064V61.936C70.382 61.52 70.702 61.2 71.118 61.2H72.91C73.326 61.2 73.646 60.88 73.646 60.464V58.736C73.646 58.32 73.326 58 72.91 58H71.118C70.702 58 70.382 57.68 70.382 57.264V51.6H73.646V57.264C73.646 57.68 73.966 58 74.382 58H81.806V61.2H74.382C73.966 61.2 73.646 61.52 73.646 61.936V70.064C73.646 70.48 73.966 70.8 74.382 70.8H85.07V74H74.382ZM91.5835 58.736C91.5835 58.32 91.9035 58 92.3195 58H104.64V61.2H92.3195C91.9035 61.2 91.5835 61.52 91.5835 61.936V63.664C91.5835 64.08 91.9035 64.4 92.3195 64.4H100.64C101.056 64.4 101.376 64.72 101.376 65.136V66.864C101.376 67.28 101.696 67.6 102.112 67.6H103.904C104.319 67.6 104.64 67.92 104.64 68.336V70.064C104.64 70.48 104.319 70.8 103.904 70.8H102.112C101.696 70.8 101.376 71.12 101.376 71.536V73.264C101.376 73.68 101.056 74 100.64 74H88.3195V70.8H100.64C101.056 70.8 101.376 70.48 101.376 70.064V68.336C101.376 67.92 101.056 67.6 100.64 67.6H92.3195C91.9035 67.6 91.5835 67.28 91.5835 66.864V65.136C91.5835 64.72 91.2635 64.4 90.8475 64.4H89.0555C88.6395 64.4 88.3195 64.08 88.3195 63.664V61.936C88.3195 61.52 88.6395 61.2 89.0555 61.2H90.8475C91.2635 61.2 91.5835 60.88 91.5835 60.464V58.736ZM123.351 74C122.935 74 122.615 73.68 122.615 73.264V71.536C122.615 71.12 122.295 70.8 121.879 70.8H120.087C119.671 70.8 119.351 70.48 119.351 70.064V61.936C119.351 61.52 119.671 61.2 120.087 61.2H121.879C122.295 61.2 122.615 60.88 122.615 60.464V58.736C122.615 58.32 122.935 58 123.351 58H131.671C132.087 58 132.407 58.32 132.407 58.736V60.464C132.407 60.88 132.727 61.2 133.143 61.2H134.935C135.351 61.2 135.671 61.52 135.671 61.936V70.064C135.671 70.48 135.351 70.8 134.935 70.8H133.143C132.727 70.8 132.407 71.12 132.407 71.536V73.264C132.407 73.68 132.087 74 131.671 74H123.351ZM122.615 70.064C122.615 70.48 122.935 70.8 123.351 70.8H131.671C132.087 70.8 132.407 70.48 132.407 70.064V61.936C132.407 61.52 132.087 61.2 131.671 61.2H123.351C122.935 61.2 122.615 61.52 122.615 61.936V70.064ZM139.681 61.2C139.265 61.2 138.945 60.88 138.945 60.464V55.536C138.945 55.12 139.265 54.8 139.681 54.8H141.473C141.889 54.8 142.209 54.48 142.209 54.064V52.336C142.209 51.92 142.529 51.6 142.945 51.6H153.633V54.8H142.945C142.529 54.8 142.209 55.12 142.209 55.536V60.464C142.209 60.88 142.529 61.2 142.945 61.2H150.401V64.4H142.945C142.529 64.4 142.209 64.72 142.209 65.136V74H138.945V65.136C138.945 64.72 139.265 64.4 139.681 64.4H141.473C141.889 64.4 142.209 64.08 142.209 63.664V61.936C142.209 61.52 141.889 61.2 141.473 61.2H139.681ZM172.32 74C171.904 74 171.584 73.68 171.584 73.264V71.536C171.584 71.12 171.264 70.8 170.848 70.8H169.056C168.64 70.8 168.32 70.48 168.32 70.064V61.936C168.32 61.52 168.64 61.2 169.056 61.2H170.848C171.264 61.2 171.584 60.88 171.584 60.464V58.736C171.584 58.32 171.264 58 170.848 58H169.056C168.64 58 168.32 57.68 168.32 57.264V51.6H171.584V57.264C171.584 57.68 171.904 58 172.32 58H179.744V61.2H172.32C171.904 61.2 171.584 61.52 171.584 61.936V70.064C171.584 70.48 171.904 70.8 172.32 70.8H183.008V74H172.32ZM186.257 74V51.6H189.521V74H186.257ZM191.153 61.2V58H198.577C198.993 58 199.313 58.32 199.313 58.736V60.464C199.313 60.88 199.633 61.2 200.049 61.2H201.841C202.257 61.2 202.577 61.52 202.577 61.936V74H199.313V61.936C199.313 61.52 198.993 61.2 198.577 61.2H191.153ZM221.435 61.2C221.851 61.2 222.171 61.52 222.171 61.936V63.664C222.171 64.08 221.851 64.4 221.435 64.4H219.643C219.227 64.4 218.907 64.72 218.907 65.136V66.864C218.907 67.28 218.587 67.6 218.171 67.6H210.747V64.4H218.171C218.587 64.4 218.907 64.08 218.907 63.664V61.936C218.907 61.52 218.587 61.2 218.171 61.2H209.851C209.435 61.2 209.115 61.52 209.115 61.936V70.064C209.115 70.48 209.435 70.8 209.851 70.8H222.171V74H209.851C209.435 74 209.115 73.68 209.115 73.264V71.536C209.115 71.12 208.795 70.8 208.379 70.8H206.587C206.171 70.8 205.851 70.48 205.851 70.064V61.936C205.851 61.52 206.171 61.2 206.587 61.2H208.379C208.795 61.2 209.115 60.88 209.115 60.464V58.736C209.115 58.32 209.435 58 209.851 58H218.171C218.587 58 218.907 58.32 218.907 58.736V60.464C218.907 60.88 219.227 61.2 219.643 61.2H221.435ZM243.41 73.264C243.41 73.68 243.09 74 242.674 74H236.882V70.8H242.674C243.09 70.8 243.41 70.48 243.41 70.064V61.936C243.41 61.52 243.09 61.2 242.674 61.2H236.882V58H242.674C243.09 58 243.41 58.32 243.41 58.736V60.464C243.41 60.88 243.73 61.2 244.146 61.2H245.938C246.354 61.2 246.674 61.52 246.674 61.936V70.064C246.674 70.48 246.994 70.8 247.41 70.8H253.202V74H247.41C246.994 74 246.674 73.68 246.674 73.264V71.536C246.674 71.12 246.354 70.8 245.938 70.8H244.146C243.73 70.8 243.41 71.12 243.41 71.536V73.264ZM243.41 55.312V53.584C243.41 53.168 243.73 52.848 244.146 52.848H245.938C246.354 52.848 246.674 53.168 246.674 53.584V55.312C246.674 55.728 246.354 56.048 245.938 56.048H244.146C243.73 56.048 243.41 55.728 243.41 55.312ZM259.74 58.736C259.74 58.32 260.06 58 260.476 58H263.9C264.316 58 264.636 58.32 264.636 58.736V60.464C264.636 60.88 264.956 61.2 265.372 61.2H267.164C267.58 61.2 267.9 60.88 267.9 60.464V58.736C267.9 58.32 268.22 58 268.636 58H272.06C272.476 58 272.796 58.32 272.796 58.736V60.464C272.796 60.88 273.116 61.2 273.532 61.2H275.324C275.74 61.2 276.06 61.52 276.06 61.936V74H272.796V61.936C272.796 61.52 272.476 61.2 272.06 61.2H268.636C268.22 61.2 267.9 61.52 267.9 61.936V74H264.636V61.936C264.636 61.52 264.316 61.2 263.9 61.2H260.476C260.06 61.2 259.74 61.52 259.74 61.936V74H256.476V61.936C256.476 61.52 256.796 61.2 257.212 61.2H259.004C259.42 61.2 259.74 60.88 259.74 60.464V58.736ZM282.584 65.136C282.584 64.72 282.904 64.4 283.32 64.4H290.744V67.6H283.32C282.904 67.6 282.584 67.92 282.584 68.336V70.064C282.584 70.48 282.904 70.8 283.32 70.8H291.64C292.056 70.8 292.376 70.48 292.376 70.064V61.936C292.376 61.52 292.056 61.2 291.64 61.2H279.32V58H291.64C292.056 58 292.376 58.32 292.376 58.736V60.464C292.376 60.88 292.696 61.2 293.112 61.2H294.904C295.319 61.2 295.64 61.52 295.64 61.936V70.064C295.64 70.48 295.319 70.8 294.904 70.8H293.112C292.696 70.8 292.376 71.12 292.376 71.536V73.264C292.376 73.68 292.056 74 291.64 74H283.32C282.904 74 282.584 73.68 282.584 73.264V71.536C282.584 71.12 282.264 70.8 281.848 70.8H280.056C279.64 70.8 279.32 70.48 279.32 70.064V68.336C279.32 67.92 279.64 67.6 280.056 67.6H281.848C282.264 67.6 282.584 67.28 282.584 66.864V65.136ZM298.913 80.4V77.2H311.233C311.649 77.2 311.969 76.88 311.969 76.464V61.936C311.969 61.52 311.649 61.2 311.233 61.2H302.913C302.497 61.2 302.177 61.52 302.177 61.936V70.064C302.177 70.48 302.497 70.8 302.913 70.8H310.337V74H302.913C302.497 74 302.177 73.68 302.177 73.264V71.536C302.177 71.12 301.857 70.8 301.441 70.8H299.649C299.233 70.8 298.913 70.48 298.913 70.064V61.936C298.913 61.52 299.233 61.2 299.649 61.2H301.441C301.857 61.2 302.177 60.88 302.177 60.464V58.736C302.177 58.32 302.497 58 302.913 58H311.233C311.649 58 311.969 58.32 311.969 58.736V60.464C311.969 60.88 312.289 61.2 312.705 61.2H314.497C314.913 61.2 315.233 61.52 315.233 61.936V76.464C315.233 76.88 314.913 77.2 314.497 77.2H312.705C312.289 77.2 311.969 77.52 311.969 77.936V79.664C311.969 80.08 311.649 80.4 311.233 80.4H298.913ZM334.091 61.2C334.507 61.2 334.827 61.52 334.827 61.936V63.664C334.827 64.08 334.507 64.4 334.091 64.4H332.299C331.883 64.4 331.563 64.72 331.563 65.136V66.864C331.563 67.28 331.243 67.6 330.827 67.6H323.403V64.4H330.827C331.243 64.4 331.563 64.08 331.563 63.664V61.936C331.563 61.52 331.243 61.2 330.827 61.2H322.507C322.091 61.2 321.771 61.52 321.771 61.936V70.064C321.771 70.48 322.091 70.8 322.507 70.8H334.827V74H322.507C322.091 74 321.771 73.68 321.771 73.264V71.536C321.771 71.12 321.451 70.8 321.035 70.8H319.243C318.827 70.8 318.507 70.48 318.507 70.064V61.936C318.507 61.52 318.827 61.2 319.243 61.2H321.035C321.451 61.2 321.771 60.88 321.771 60.464V58.736C321.771 58.32 322.091 58 322.507 58H330.827C331.243 58 331.563 58.32 331.563 58.736V60.464C331.563 60.88 331.883 61.2 332.299 61.2H334.091ZM338.101 71.536C338.101 71.12 338.421 70.8 338.837 70.8H340.629C341.045 70.8 341.365 71.12 341.365 71.536V73.264C341.365 73.68 341.045 74 340.629 74H338.837C338.421 74 338.101 73.68 338.101 73.264V71.536ZM359.334 61.936C359.334 61.52 359.654 61.2 360.07 61.2H371.654C372.069 61.2 372.39 61.52 372.39 61.936V63.664C372.39 64.08 372.71 64.4 373.126 64.4H374.918C375.334 64.4 375.654 64.72 375.654 65.136V74H372.39V65.136C372.39 64.72 372.069 64.4 371.654 64.4H360.07C359.654 64.4 359.334 64.72 359.334 65.136V74H356.07V65.136C356.07 64.72 356.39 64.4 356.806 64.4H358.598C359.014 64.4 359.334 64.08 359.334 63.664V61.936ZM356.07 61.2V55.536C356.07 55.12 356.39 54.8 356.806 54.8H358.598C359.014 54.8 359.334 54.48 359.334 54.064V52.336C359.334 51.92 359.654 51.6 360.07 51.6H371.654C372.069 51.6 372.39 51.92 372.39 52.336V54.064C372.39 54.48 372.71 54.8 373.126 54.8H374.918C375.334 54.8 375.654 55.12 375.654 55.536V61.2H372.39V55.536C372.39 55.12 372.069 54.8 371.654 54.8H360.07C359.654 54.8 359.334 55.12 359.334 55.536V61.2H356.07ZM382.177 58.736C382.177 58.32 382.497 58 382.913 58H391.233C391.649 58 391.969 58.32 391.969 58.736V60.464C391.969 60.88 392.289 61.2 392.705 61.2H394.497C394.913 61.2 395.233 61.52 395.233 61.936V74H391.969V61.936C391.969 61.52 391.649 61.2 391.233 61.2H382.913C382.497 61.2 382.177 61.52 382.177 61.936V74H378.913V61.936C378.913 61.52 379.233 61.2 379.649 61.2H381.441C381.857 61.2 382.177 60.88 382.177 60.464V58.736ZM414.827 70.064C414.827 70.48 414.507 70.8 414.091 70.8H412.299C411.883 70.8 411.563 71.12 411.563 71.536V73.264C411.563 73.68 411.243 74 410.827 74H402.507C402.091 74 401.771 73.68 401.771 73.264V71.536C401.771 71.12 401.451 70.8 401.035 70.8H399.243C398.827 70.8 398.507 70.48 398.507 70.064V61.936C398.507 61.52 398.827 61.2 399.243 61.2H401.035C401.451 61.2 401.771 60.88 401.771 60.464V58.736C401.771 58.32 402.091 58 402.507 58H409.931V61.2H402.507C402.091 61.2 401.771 61.52 401.771 61.936V70.064C401.771 70.48 402.091 70.8 402.507 70.8H410.827C411.243 70.8 411.563 70.48 411.563 70.064V51.6H414.827V70.064ZM433.538 74C433.122 74 432.802 73.68 432.802 73.264V71.536C432.802 71.12 432.482 70.8 432.066 70.8H430.274C429.858 70.8 429.538 70.48 429.538 70.064V61.936C429.538 61.52 429.858 61.2 430.274 61.2H432.066C432.482 61.2 432.802 60.88 432.802 60.464V58.736C432.802 58.32 432.482 58 432.066 58H430.274C429.858 58 429.538 57.68 429.538 57.264V51.6H432.802V57.264C432.802 57.68 433.122 58 433.538 58H440.962V61.2H433.538C433.122 61.2 432.802 61.52 432.802 61.936V70.064C432.802 70.48 433.122 70.8 433.538 70.8H444.226V74H433.538ZM450.74 58.736C450.74 58.32 451.06 58 451.476 58H459.796C460.212 58 460.532 58.32 460.532 58.736V60.464C460.532 60.88 460.852 61.2 461.268 61.2H463.06C463.476 61.2 463.796 61.52 463.796 61.936V64.4H460.532V61.936C460.532 61.52 460.212 61.2 459.796 61.2H451.476C451.06 61.2 450.74 61.52 450.74 61.936V74H447.476V61.936C447.476 61.52 447.796 61.2 448.212 61.2H450.004C450.42 61.2 450.74 60.88 450.74 60.464V58.736ZM467.07 80.4V77.2H479.39C479.806 77.2 480.126 76.88 480.126 76.464V58H483.39V76.464C483.39 76.88 483.069 77.2 482.654 77.2H480.862C480.446 77.2 480.126 77.52 480.126 77.936V79.664C480.126 80.08 479.806 80.4 479.39 80.4H467.07ZM467.07 70.064V58H470.334V70.064C470.334 70.48 470.654 70.8 471.07 70.8H478.494V74H471.07C470.654 74 470.334 73.68 470.334 73.264V71.536C470.334 71.12 470.014 70.8 469.598 70.8H467.806C467.39 70.8 467.07 70.48 467.07 70.064ZM33.6148 107.136C33.6148 106.72 33.9348 106.4 34.3508 106.4H41.7748V109.6H34.3508C33.9348 109.6 33.6148 109.92 33.6148 110.336V112.064C33.6148 112.48 33.9348 112.8 34.3508 112.8H42.6708C43.0868 112.8 43.4068 112.48 43.4068 112.064V103.936C43.4068 103.52 43.0868 103.2 42.6708 103.2H30.3508V100H42.6708C43.0868 100 43.4068 100.32 43.4068 100.736V102.464C43.4068 102.88 43.7268 103.2 44.1428 103.2H45.9348C46.3507 103.2 46.6708 103.52 46.6708 103.936V112.064C46.6708 112.48 46.3507 112.8 45.9348 112.8H44.1428C43.7268 112.8 43.4068 113.12 43.4068 113.536V115.264C43.4068 115.68 43.0868 116 42.6708 116H34.3508C33.9348 116 33.6148 115.68 33.6148 115.264V113.536C33.6148 113.12 33.2948 112.8 32.8788 112.8H31.0868C30.6708 112.8 30.3508 112.48 30.3508 112.064V110.336C30.3508 109.92 30.6708 109.6 31.0868 109.6H32.8788C33.2948 109.6 33.6148 109.28 33.6148 108.864V107.136ZM63.0005 112.064C63.0005 112.48 62.6805 112.8 62.2645 112.8H60.4725C60.0565 112.8 59.7365 113.12 59.7365 113.536V115.264C59.7365 115.68 59.4165 116 59.0005 116H57.2085C56.7925 116 56.4725 115.68 56.4725 115.264V113.536C56.4725 113.12 56.1525 112.8 55.7365 112.8H53.9445C53.5285 112.8 53.2085 112.48 53.2085 112.064V110.336C53.2085 109.92 52.8885 109.6 52.4725 109.6H50.6805C50.2645 109.6 49.9445 109.28 49.9445 108.864V100H53.2085V108.864C53.2085 109.28 53.5285 109.6 53.9445 109.6H55.7365C56.1525 109.6 56.4725 109.92 56.4725 110.336V112.064C56.4725 112.48 56.7925 112.8 57.2085 112.8H59.0005C59.4165 112.8 59.7365 112.48 59.7365 112.064V110.336C59.7365 109.92 60.0565 109.6 60.4725 109.6H62.2645C62.6805 109.6 63.0005 109.28 63.0005 108.864V100H66.2645V108.864C66.2645 109.28 65.9445 109.6 65.5285 109.6H63.7365C63.3205 109.6 63.0005 109.92 63.0005 110.336V112.064ZM73.5383 116C73.1223 116 72.8023 115.68 72.8023 115.264V113.536C72.8023 113.12 72.4823 112.8 72.0663 112.8H70.2743C69.8583 112.8 69.5383 112.48 69.5383 112.064V103.936C69.5383 103.52 69.8583 103.2 70.2743 103.2H72.0663C72.4823 103.2 72.8023 102.88 72.8023 102.464V100.736C72.8023 100.32 73.1223 100 73.5383 100H81.8583C82.2743 100 82.5943 100.32 82.5943 100.736V102.464C82.5943 102.88 82.9143 103.2 83.3303 103.2H85.1223C85.5382 103.2 85.8583 103.52 85.8583 103.936V112.064C85.8583 112.48 85.5382 112.8 85.1223 112.8H83.3303C82.9143 112.8 82.5943 113.12 82.5943 113.536V115.264C82.5943 115.68 82.2743 116 81.8583 116H73.5383ZM72.8023 112.064C72.8023 112.48 73.1223 112.8 73.5383 112.8H81.8583C82.2743 112.8 82.5943 112.48 82.5943 112.064V103.936C82.5943 103.52 82.2743 103.2 81.8583 103.2H73.5383C73.1223 103.2 72.8023 103.52 72.8023 103.936V112.064ZM95.66 115.264C95.66 115.68 95.34 116 94.924 116H89.132V112.8H94.924C95.34 112.8 95.66 112.48 95.66 112.064V103.936C95.66 103.52 95.34 103.2 94.924 103.2H89.132V100H94.924C95.34 100 95.66 100.32 95.66 100.736V102.464C95.66 102.88 95.98 103.2 96.396 103.2H98.188C98.604 103.2 98.924 103.52 98.924 103.936V112.064C98.924 112.48 99.244 112.8 99.66 112.8H105.452V116H99.66C99.244 116 98.924 115.68 98.924 115.264V113.536C98.924 113.12 98.604 112.8 98.188 112.8H96.396C95.98 112.8 95.66 113.12 95.66 113.536V115.264ZM95.66 97.312V95.584C95.66 95.168 95.98 94.848 96.396 94.848H98.188C98.604 94.848 98.924 95.168 98.924 95.584V97.312C98.924 97.728 98.604 98.048 98.188 98.048H96.396C95.98 98.048 95.66 97.728 95.66 97.312ZM125.046 112.064C125.046 112.48 124.726 112.8 124.31 112.8H122.518C122.102 112.8 121.782 113.12 121.782 113.536V115.264C121.782 115.68 121.462 116 121.046 116H112.726C112.31 116 111.99 115.68 111.99 115.264V113.536C111.99 113.12 111.67 112.8 111.254 112.8H109.462C109.046 112.8 108.726 112.48 108.726 112.064V103.936C108.726 103.52 109.046 103.2 109.462 103.2H111.254C111.67 103.2 111.99 102.88 111.99 102.464V100.736C111.99 100.32 112.31 100 112.726 100H120.15V103.2H112.726C112.31 103.2 111.99 103.52 111.99 103.936V112.064C111.99 112.48 112.31 112.8 112.726 112.8H121.046C121.462 112.8 121.782 112.48 121.782 112.064V93.6H125.046V112.064ZM134.848 115.264C134.848 115.68 134.528 116 134.112 116H128.32V112.8H134.112C134.528 112.8 134.848 112.48 134.848 112.064V103.936C134.848 103.52 134.528 103.2 134.112 103.2H128.32V100H134.112C134.528 100 134.848 100.32 134.848 100.736V102.464C134.848 102.88 135.168 103.2 135.584 103.2H137.376C137.792 103.2 138.112 103.52 138.112 103.936V112.064C138.112 112.48 138.432 112.8 138.848 112.8H144.64V116H138.848C138.432 116 138.112 115.68 138.112 115.264V113.536C138.112 113.12 137.792 112.8 137.376 112.8H135.584C135.168 112.8 134.848 113.12 134.848 113.536V115.264ZM134.848 97.312V95.584C134.848 95.168 135.168 94.848 135.584 94.848H137.376C137.792 94.848 138.112 95.168 138.112 95.584V97.312C138.112 97.728 137.792 98.048 137.376 98.048H135.584C135.168 98.048 134.848 97.728 134.848 97.312ZM151.177 100.736C151.177 100.32 151.497 100 151.913 100H160.233C160.649 100 160.969 100.32 160.969 100.736V102.464C160.969 102.88 161.289 103.2 161.705 103.2H163.497C163.913 103.2 164.233 103.52 164.233 103.936V116H160.969V103.936C160.969 103.52 160.649 103.2 160.233 103.2H151.913C151.497 103.2 151.177 103.52 151.177 103.936V116H147.913V103.936C147.913 103.52 148.233 103.2 148.649 103.2H150.441C150.857 103.2 151.177 102.88 151.177 102.464V100.736ZM167.507 122.4V119.2H179.827C180.243 119.2 180.563 118.88 180.563 118.464V103.936C180.563 103.52 180.243 103.2 179.827 103.2H171.507C171.091 103.2 170.771 103.52 170.771 103.936V112.064C170.771 112.48 171.091 112.8 171.507 112.8H178.931V116H171.507C171.091 116 170.771 115.68 170.771 115.264V113.536C170.771 113.12 170.451 112.8 170.035 112.8H168.243C167.827 112.8 167.507 112.48 167.507 112.064V103.936C167.507 103.52 167.827 103.2 168.243 103.2H170.035C170.451 103.2 170.771 102.88 170.771 102.464V100.736C170.771 100.32 171.091 100 171.507 100H179.827C180.243 100 180.563 100.32 180.563 100.736V102.464C180.563 102.88 180.883 103.2 181.299 103.2H183.091C183.507 103.2 183.827 103.52 183.827 103.936V118.464C183.827 118.88 183.507 119.2 183.091 119.2H181.299C180.883 119.2 180.563 119.52 180.563 119.936V121.664C180.563 122.08 180.243 122.4 179.827 122.4H167.507ZM202.538 116C202.122 116 201.802 115.68 201.802 115.264V113.536C201.802 113.12 201.482 112.8 201.066 112.8H199.274C198.858 112.8 198.538 112.48 198.538 112.064V103.936C198.538 103.52 198.858 103.2 199.274 103.2H201.066C201.482 103.2 201.802 102.88 201.802 102.464V100.736C201.802 100.32 201.482 100 201.066 100H199.274C198.858 100 198.538 99.68 198.538 99.264V93.6H201.802V99.264C201.802 99.68 202.122 100 202.538 100H209.962V103.2H202.538C202.122 103.2 201.802 103.52 201.802 103.936V112.064C201.802 112.48 202.122 112.8 202.538 112.8H213.226V116H202.538ZM216.476 116V93.6H219.74V116H216.476ZM221.372 103.2V100H228.796C229.212 100 229.532 100.32 229.532 100.736V102.464C229.532 102.88 229.852 103.2 230.268 103.2H232.06C232.476 103.2 232.796 103.52 232.796 103.936V116H229.532V103.936C229.532 103.52 229.212 103.2 228.796 103.2H221.372ZM251.654 103.2C252.069 103.2 252.39 103.52 252.39 103.936V105.664C252.39 106.08 252.069 106.4 251.654 106.4H249.862C249.446 106.4 249.126 106.72 249.126 107.136V108.864C249.126 109.28 248.806 109.6 248.39 109.6H240.966V106.4H248.39C248.806 106.4 249.126 106.08 249.126 105.664V103.936C249.126 103.52 248.806 103.2 248.39 103.2H240.07C239.654 103.2 239.334 103.52 239.334 103.936V112.064C239.334 112.48 239.654 112.8 240.07 112.8H252.39V116H240.07C239.654 116 239.334 115.68 239.334 115.264V113.536C239.334 113.12 239.014 112.8 238.598 112.8H236.806C236.39 112.8 236.07 112.48 236.07 112.064V103.936C236.07 103.52 236.39 103.2 236.806 103.2H238.598C239.014 103.2 239.334 102.88 239.334 102.464V100.736C239.334 100.32 239.654 100 240.07 100H248.39C248.806 100 249.126 100.32 249.126 100.736V102.464C249.126 102.88 249.446 103.2 249.862 103.2H251.654ZM270.365 100.736C270.365 100.32 270.685 100 271.101 100H279.421C279.837 100 280.157 100.32 280.157 100.736V102.464C280.157 102.88 280.477 103.2 280.893 103.2H282.685C283.101 103.2 283.421 103.52 283.421 103.936V106.4H280.157V103.936C280.157 103.52 279.837 103.2 279.421 103.2H271.101C270.685 103.2 270.365 103.52 270.365 103.936V116H267.101V103.936C267.101 103.52 267.421 103.2 267.837 103.2H269.629C270.045 103.2 270.365 102.88 270.365 102.464V100.736ZM302.279 103.2C302.694 103.2 303.015 103.52 303.015 103.936V105.664C303.015 106.08 302.694 106.4 302.279 106.4H300.487C300.071 106.4 299.751 106.72 299.751 107.136V108.864C299.751 109.28 299.431 109.6 299.015 109.6H291.591V106.4H299.015C299.431 106.4 299.751 106.08 299.751 105.664V103.936C299.751 103.52 299.431 103.2 299.015 103.2H290.695C290.279 103.2 289.959 103.52 289.959 103.936V112.064C289.959 112.48 290.279 112.8 290.695 112.8H303.015V116H290.695C290.279 116 289.959 115.68 289.959 115.264V113.536C289.959 113.12 289.639 112.8 289.223 112.8H287.431C287.015 112.8 286.695 112.48 286.695 112.064V103.936C286.695 103.52 287.015 103.2 287.431 103.2H289.223C289.639 103.2 289.959 102.88 289.959 102.464V100.736C289.959 100.32 290.279 100 290.695 100H299.015C299.431 100 299.751 100.32 299.751 100.736V102.464C299.751 102.88 300.071 103.2 300.487 103.2H302.279ZM319.344 106.4V103.936C319.344 103.52 319.024 103.2 318.608 103.2H310.288C309.872 103.2 309.552 103.52 309.552 103.936V112.064C309.552 112.48 309.872 112.8 310.288 112.8H318.608C319.024 112.8 319.344 112.48 319.344 112.064V109.6H322.608V112.064C322.608 112.48 322.288 112.8 321.872 112.8H320.08C319.664 112.8 319.344 113.12 319.344 113.536V115.264C319.344 115.68 319.024 116 318.608 116H310.288C309.872 116 309.552 115.68 309.552 115.264V113.536C309.552 113.12 309.232 112.8 308.816 112.8H307.024C306.608 112.8 306.288 112.48 306.288 112.064V103.936C306.288 103.52 306.608 103.2 307.024 103.2H308.816C309.232 103.2 309.552 102.88 309.552 102.464V100.736C309.552 100.32 309.872 100 310.288 100H318.608C319.024 100 319.344 100.32 319.344 100.736V102.464C319.344 102.88 319.664 103.2 320.08 103.2H321.872C322.288 103.2 322.608 103.52 322.608 103.936V106.4H319.344ZM329.882 116C329.466 116 329.146 115.68 329.146 115.264V113.536C329.146 113.12 328.826 112.8 328.41 112.8H326.618C326.202 112.8 325.882 112.48 325.882 112.064V103.936C325.882 103.52 326.202 103.2 326.618 103.2H328.41C328.826 103.2 329.146 102.88 329.146 102.464V100.736C329.146 100.32 328.826 100 328.41 100H326.618C326.202 100 325.882 99.68 325.882 99.264V93.6H329.146V99.264C329.146 99.68 329.466 100 329.882 100H337.306V103.2H329.882C329.466 103.2 329.146 103.52 329.146 103.936V112.064C329.146 112.48 329.466 112.8 329.882 112.8H340.57V116H329.882ZM347.084 107.136C347.084 106.72 347.404 106.4 347.82 106.4H355.244V109.6H347.82C347.404 109.6 347.084 109.92 347.084 110.336V112.064C347.084 112.48 347.404 112.8 347.82 112.8H356.14C356.556 112.8 356.876 112.48 356.876 112.064V103.936C356.876 103.52 356.556 103.2 356.14 103.2H343.82V100H356.14C356.556 100 356.876 100.32 356.876 100.736V102.464C356.876 102.88 357.196 103.2 357.612 103.2H359.404C359.819 103.2 360.14 103.52 360.14 103.936V112.064C360.14 112.48 359.819 112.8 359.404 112.8H357.612C357.196 112.8 356.876 113.12 356.876 113.536V115.264C356.876 115.68 356.556 116 356.14 116H347.82C347.404 116 347.084 115.68 347.084 115.264V113.536C347.084 113.12 346.764 112.8 346.348 112.8H344.556C344.14 112.8 343.82 112.48 343.82 112.064V110.336C343.82 109.92 344.14 109.6 344.556 109.6H346.348C346.764 109.6 347.084 109.28 347.084 108.864V107.136ZM366.677 100.736C366.677 100.32 366.997 100 367.413 100H375.733C376.149 100 376.469 100.32 376.469 100.736V102.464C376.469 102.88 376.789 103.2 377.205 103.2H378.997C379.413 103.2 379.733 103.52 379.733 103.936V116H376.469V103.936C376.469 103.52 376.149 103.2 375.733 103.2H367.413C366.997 103.2 366.677 103.52 366.677 103.936V116H363.413V103.936C363.413 103.52 363.733 103.2 364.149 103.2H365.941C366.357 103.2 366.677 102.88 366.677 102.464V100.736ZM383.007 122.4V119.2H395.327C395.743 119.2 396.063 118.88 396.063 118.464V103.936C396.063 103.52 395.743 103.2 395.327 103.2H387.007C386.591 103.2 386.271 103.52 386.271 103.936V112.064C386.271 112.48 386.591 112.8 387.007 112.8H394.431V116H387.007C386.591 116 386.271 115.68 386.271 115.264V113.536C386.271 113.12 385.951 112.8 385.535 112.8H383.743C383.327 112.8 383.007 112.48 383.007 112.064V103.936C383.007 103.52 383.327 103.2 383.743 103.2H385.535C385.951 103.2 386.271 102.88 386.271 102.464V100.736C386.271 100.32 386.591 100 387.007 100H395.327C395.743 100 396.063 100.32 396.063 100.736V102.464C396.063 102.88 396.383 103.2 396.799 103.2H398.591C399.007 103.2 399.327 103.52 399.327 103.936V118.464C399.327 118.88 399.007 119.2 398.591 119.2H396.799C396.383 119.2 396.063 119.52 396.063 119.936V121.664C396.063 122.08 395.743 122.4 395.327 122.4H383.007ZM409.129 115.264C409.129 115.68 408.809 116 408.393 116H402.601V112.8H408.393C408.809 112.8 409.129 112.48 409.129 112.064V97.536C409.129 97.12 408.809 96.8 408.393 96.8H402.601V93.6H408.393C408.809 93.6 409.129 93.92 409.129 94.336V96.064C409.129 96.48 409.449 96.8 409.865 96.8H411.657C412.073 96.8 412.393 97.12 412.393 97.536V112.064C412.393 112.48 412.713 112.8 413.129 112.8H418.921V116H413.129C412.713 116 412.393 115.68 412.393 115.264V113.536C412.393 113.12 412.073 112.8 411.657 112.8H409.865C409.449 112.8 409.129 113.12 409.129 113.536V115.264ZM437.779 103.2C438.194 103.2 438.515 103.52 438.515 103.936V105.664C438.515 106.08 438.194 106.4 437.779 106.4H435.987C435.571 106.4 435.251 106.72 435.251 107.136V108.864C435.251 109.28 434.931 109.6 434.515 109.6H427.091V106.4H434.515C434.931 106.4 435.251 106.08 435.251 105.664V103.936C435.251 103.52 434.931 103.2 434.515 103.2H426.195C425.779 103.2 425.459 103.52 425.459 103.936V112.064C425.459 112.48 425.779 112.8 426.195 112.8H438.515V116H426.195C425.779 116 425.459 115.68 425.459 115.264V113.536C425.459 113.12 425.139 112.8 424.723 112.8H422.931C422.515 112.8 422.195 112.48 422.195 112.064V103.936C422.195 103.52 422.515 103.2 422.931 103.2H424.723C425.139 103.2 425.459 102.88 425.459 102.464V100.736C425.459 100.32 425.779 100 426.195 100H434.515C434.931 100 435.251 100.32 435.251 100.736V102.464C435.251 102.88 435.571 103.2 435.987 103.2H437.779ZM445.052 100.736C445.052 100.32 445.372 100 445.788 100H458.108V103.2H445.788C445.372 103.2 445.052 103.52 445.052 103.936V105.664C445.052 106.08 445.372 106.4 445.788 106.4H454.108C454.524 106.4 454.844 106.72 454.844 107.136V108.864C454.844 109.28 455.164 109.6 455.58 109.6H457.372C457.788 109.6 458.108 109.92 458.108 110.336V112.064C458.108 112.48 457.788 112.8 457.372 112.8H455.58C455.164 112.8 454.844 113.12 454.844 113.536V115.264C454.844 115.68 454.524 116 454.108 116H441.788V112.8H454.108C454.524 112.8 454.844 112.48 454.844 112.064V110.336C454.844 109.92 454.524 109.6 454.108 109.6H445.788C445.372 109.6 445.052 109.28 445.052 108.864V107.136C445.052 106.72 444.732 106.4 444.316 106.4H442.524C442.108 106.4 441.788 106.08 441.788 105.664V103.936C441.788 103.52 442.108 103.2 442.524 103.2H444.316C444.732 103.2 445.052 102.88 445.052 102.464V100.736ZM461.382 113.536C461.382 113.12 461.702 112.8 462.118 112.8H463.91C464.326 112.8 464.646 113.12 464.646 113.536V115.264C464.646 115.68 464.326 116 463.91 116H462.118C461.702 116 461.382 115.68 461.382 115.264V113.536Z" fill="white"/>
<rect width="88" height="88" rx="14" transform="matrix(-4.37114e-08 1 1 4.37114e-08 203.5 174)" fill="#EBD026"/>
<path fill-rule="evenodd" clip-rule="evenodd" d="M230 219.5C230 220.052 230.448 220.5 231 220.5L234 220.5C234.552 220.5 235 220.052 235 219.5L235 216.5C235 215.948 235.447 215.5 236 215.5L239 215.5C239.552 215.5 240 215.052 240 214.5L240 211.5C240 210.948 240.447 210.5 241 210.5L244 210.5C244.552 210.5 245 210.947 245 211.5L245 234.5C245 235.052 245.448 235.5 246 235.5L249 235.5C249.552 235.5 250 235.052 250 234.5L250 211.5C250 210.948 250.447 210.5 251 210.5L254 210.5C254.552 210.5 255 210.947 255 211.5L255 214.5C255 215.052 255.448 215.5 256 215.5L259 215.5C259.552 215.5 260 215.947 260 216.5L260 219.5C260 220.052 260.448 220.5 261 220.5L264 220.5C264.552 220.5 265 220.052 265 219.5L265 216.5C265 215.948 264.552 215.5 264 215.5L261 215.5C260.448 215.5 260 215.053 260 214.5L260 211.5C260 210.948 259.552 210.5 259 210.5L256 210.5C255.448 210.5 255 210.053 255 209.5L255 206.5C255 205.948 254.552 205.5 254 205.5L251 205.5C250.448 205.5 250 205.053 250 204.5L250 201.5C250 200.948 249.552 200.5 249 200.5L246 200.5C245.448 200.5 245 200.948 245 201.5L245 204.5C245 205.052 244.553 205.5 244 205.5L241 205.5C240.448 205.5 240 205.948 240 206.5L240 209.5C240 210.052 239.553 210.5 239 210.5L236 210.5C235.448 210.5 235 210.948 235 211.5L235 214.5C235 215.052 234.553 215.5 234 215.5L231 215.5C230.448 215.5 230 215.948 230 216.5L230 219.5Z" fill="black"/>
<rect width="88" height="88" rx="14" transform="matrix(1 1.74846e-07 1.74846e-07 -1 99.5 366)" fill="#EBD026"/>
<path fill-rule="evenodd" clip-rule="evenodd" d="M145 339.5C145.552 339.5 146 339.052 146 338.5L146 335.5C146 334.948 145.552 334.5 145 334.5L142 334.5C141.448 334.5 141 334.053 141 333.5L141 330.5C141 329.948 140.552 329.5 140 329.5L137 329.5C136.448 329.5 136 329.053 136 328.5L136 325.5C136 324.948 136.447 324.5 137 324.5L160 324.5C160.552 324.5 161 324.052 161 323.5L161 320.5C161 319.948 160.552 319.5 160 319.5L137 319.5C136.448 319.5 136 319.053 136 318.5L136 315.5C136 314.948 136.447 314.5 137 314.5L140 314.5C140.552 314.5 141 314.052 141 313.5L141 310.5C141 309.948 141.447 309.5 142 309.5L145 309.5C145.552 309.5 146 309.052 146 308.5L146 305.5C146 304.948 145.552 304.5 145 304.5L142 304.5C141.448 304.5 141 304.948 141 305.5L141 308.5C141 309.052 140.553 309.5 140 309.5L137 309.5C136.448 309.5 136 309.948 136 310.5L136 313.5C136 314.052 135.553 314.5 135 314.5L132 314.5C131.448 314.5 131 314.948 131 315.5L131 318.5C131 319.052 130.553 319.5 130 319.5L127 319.5C126.448 319.5 126 319.948 126 320.5L126 323.5C126 324.052 126.448 324.5 127 324.5L130 324.5C130.552 324.5 131 324.947 131 325.5L131 328.5C131 329.052 131.448 329.5 132 329.5L135 329.5C135.552 329.5 136 329.947 136 330.5L136 333.5C136 334.052 136.448 334.5 137 334.5L140 334.5C140.552 334.5 141 334.947 141 335.5L141 338.5C141 339.052 141.448 339.5 142 339.5L145 339.5Z" fill="black"/>
<rect width="88" height="88" rx="14" transform="matrix(1.19249e-08 -1 -1 -1.19249e-08 291.5 366)" fill="#EBD026"/>
<path fill-rule="evenodd" clip-rule="evenodd" d="M265 320.5C265 319.948 264.552 319.5 264 319.5L261 319.5C260.448 319.5 260 319.948 260 320.5L260 323.5C260 324.052 259.553 324.5 259 324.5L256 324.5C255.448 324.5 255 324.948 255 325.5L255 328.5C255 329.052 254.553 329.5 254 329.5L251 329.5C250.448 329.5 250 329.053 250 328.5L250 305.5C250 304.948 249.552 304.5 249 304.5L246 304.5C245.448 304.5 245 304.948 245 305.5L245 328.5C245 329.052 244.553 329.5 244 329.5L241 329.5C240.448 329.5 240 329.053 240 328.5L240 325.5C240 324.948 239.552 324.5 239 324.5L236 324.5C235.448 324.5 235 324.053 235 323.5L235 320.5C235 319.948 234.552 319.5 234 319.5L231 319.5C230.448 319.5 230 319.948 230 320.5L230 323.5C230 324.052 230.448 324.5 231 324.5L234 324.5C234.552 324.5 235 324.947 235 325.5L235 328.5C235 329.052 235.448 329.5 236 329.5L239 329.5C239.552 329.5 240 329.947 240 330.5L240 333.5C240 334.052 240.448 334.5 241 334.5L244 334.5C244.552 334.5 245 334.947 245 335.5L245 338.5C245 339.052 245.448 339.5 246 339.5L249 339.5C249.552 339.5 250 339.052 250 338.5L250 335.5C250 334.948 250.447 334.5 251 334.5L254 334.5C254.552 334.5 255 334.052 255 333.5L255 330.5C255 329.948 255.447 329.5 256 329.5L259 329.5C259.552 329.5 260 329.052 260 328.5L260 325.5C260 324.948 260.447 324.5 261 324.5L264 324.5C264.552 324.5 265 324.052 265 323.5L265 320.5Z" fill="black"/>
<rect width="88" height="88" rx="14" transform="matrix(-1 0 0 1 395.5 278)" fill="#EBD026"/>
<path fill-rule="evenodd" clip-rule="evenodd" d="M350 304.5C349.448 304.5 349 304.948 349 305.5V308.5C349 309.052 349.448 309.5 350 309.5H353C353.552 309.5 354 309.947 354 310.5V313.5C354 314.052 354.448 314.5 355 314.5H358C358.552 314.5 359 314.947 359 315.5V318.5C359 319.052 358.553 319.5 358 319.5H335C334.448 319.5 334 319.948 334 320.5V323.5C334 324.052 334.448 324.5 335 324.5H358C358.552 324.5 359 324.947 359 325.5V328.5C359 329.052 358.553 329.5 358 329.5H355C354.448 329.5 354 329.948 354 330.5V333.5C354 334.052 353.553 334.5 353 334.5H350C349.448 334.5 349 334.948 349 335.5V338.5C349 339.052 349.448 339.5 350 339.5H353C353.552 339.5 354 339.052 354 338.5V335.5C354 334.948 354.447 334.5 355 334.5H358C358.552 334.5 359 334.052 359 333.5V330.5C359 329.948 359.447 329.5 360 329.5H363C363.552 329.5 364 329.052 364 328.5V325.5C364 324.948 364.447 324.5 365 324.5H368C368.552 324.5 369 324.052 369 323.5V320.5C369 319.948 368.552 319.5 368 319.5H365C364.448 319.5 364 319.053 364 318.5V315.5C364 314.948 363.552 314.5 363 314.5H360C359.448 314.5 359 314.053 359 313.5V310.5C359 309.948 358.552 309.5 358 309.5H355C354.448 309.5 354 309.053 354 308.5V305.5C354 304.948 353.552 304.5 353 304.5H350Z" fill="black"/>
</svg>
